<svg width="100" height="220" viewBox="0 0 100 220" fill="none" xmlns="http://www.w3.org/2000/svg">
<path d="M72.4903 11.3361C74.8 12.1915 77.5742 10.3934 78.6862 7.32166C79.7975 4.24988 78.8268 1.06703 76.5171 0.212442C74.2066 -0.641404 71.4332 1.15515 70.3212 4.22767C69.2099 7.29944 70.1805 10.4823 72.491 11.3361H72.4903Z" fill="#CCE1E4"/>
<path d="M63.7128 16.2355C66.1295 16.0237 67.8649 13.2482 67.5902 10.0335C67.3148 6.82025 65.1332 4.38683 62.7165 4.59714C60.3006 4.80968 58.5652 7.58597 58.8399 10.7999C59.1153 14.0131 61.2969 16.4466 63.7128 16.2355Z" fill="#CCE1E4"/>
<path d="M82.5321 16.1267C84.6528 17.3871 87.7002 16.1216 89.3397 13.3016C90.9784 10.4794 90.5879 7.17283 88.4665 5.91317C86.3457 4.65424 83.2976 5.92057 81.6589 8.74056C80.0202 11.562 80.4113 14.8686 82.5321 16.1275V16.1267Z" fill="#CCE1E4"/>
<path d="M93.8909 19.4695C92.5159 17.4501 89.2707 17.2938 86.6423 19.1222C84.0132 20.9513 82.9971 24.0705 84.3714 26.0907C85.7464 28.1102 88.9916 28.2664 91.62 26.438C94.2484 24.6096 95.2652 21.4905 93.8909 19.4703V19.4695Z" fill="#CCE1E4"/>
<path d="M79.771 19.8509C79.5088 18.0165 78.396 16.3429 76.6181 15.495C74.8402 14.6471 72.855 14.8426 71.2881 15.8038C69.5556 16.8665 68.448 18.255 66.9558 18.8615C65.4643 19.468 61.2859 17.6611 58.6846 22.4368C56.8473 25.81 58.5337 30.0741 61.9781 31.7173C64.5963 32.9659 66.6679 32.8267 68.1894 33.5517C69.7102 34.2767 70.9211 35.9829 73.5392 37.2314C76.9837 38.8747 81.3116 37.4802 82.7196 33.9019C84.7128 28.8359 80.6757 26.7246 80.1908 25.1746C79.7058 23.6254 80.0619 21.8777 79.7718 19.8509H79.771Z" fill="#CCE1E4"/>
<path d="M77.778 72.6185C80.0877 73.4739 82.8619 71.6758 83.9739 68.6041C85.0852 65.5323 84.1146 62.3494 81.8048 61.4949C79.4944 60.641 76.7209 62.4376 75.6089 65.5101C74.4976 68.5818 75.4683 71.7647 77.7787 72.6185H77.778Z" fill="#CCE1E4"/>
<path d="M69.0005 77.5179C71.4172 77.3061 73.1526 74.5306 72.8779 71.3159C72.6025 68.1027 70.4209 65.6692 68.0043 65.8796C65.5883 66.0921 63.8529 68.8684 64.1276 72.0823C64.403 75.2956 66.5846 77.729 69.0005 77.5179Z" fill="#CCE1E4"/>
<path d="M87.8198 77.4091C89.9405 78.6696 92.9879 77.404 94.6274 74.584C96.2661 71.7618 95.8757 68.4552 93.7542 67.1956C91.6335 65.9367 88.5853 67.203 86.9466 70.023C85.3079 72.8444 85.6991 76.151 87.8198 77.4099V77.4091Z" fill="#CCE1E4"/>
<path d="M99.1786 80.7519C97.8036 78.7325 94.5584 78.5762 91.93 80.4046C89.3009 82.2338 88.2848 85.3529 89.6591 87.3731C91.0341 89.3926 94.2793 89.5488 96.9077 87.7204C99.5361 85.892 100.553 82.7729 99.1786 80.7527V80.7519Z" fill="#CCE1E4"/>
<path d="M85.0588 81.1333C84.7965 79.299 83.6838 77.6253 81.9059 76.7774C80.128 75.9295 78.1428 76.125 76.5758 77.0862C74.8433 78.1489 73.7357 79.5374 72.2435 80.1439C70.752 80.7504 66.5736 78.9435 63.9723 83.7193C62.135 87.0924 63.8214 91.3565 67.2658 92.9997C69.884 94.2483 71.9556 94.1091 73.4771 94.8341C74.9979 95.5591 76.2088 97.2653 78.827 98.5138C82.2714 100.157 86.5993 98.7626 88.0073 95.1843C90.0006 90.1183 85.9635 88.007 85.4785 86.457C84.9936 84.9078 85.3496 83.1601 85.0595 81.1333H85.0588Z" fill="#CCE1E4"/>
<path d="M14.7685 132.138C17.0782 132.993 19.8524 131.195 20.9644 128.123C22.0757 125.051 21.105 121.869 18.7953 121.014C16.4848 120.16 13.7114 121.957 12.5994 125.029C11.4881 128.101 12.4587 131.284 14.7692 132.138H14.7685Z" fill="#CCE1E4"/>
<path d="M5.991 137.037C8.40769 136.825 10.1431 134.05 9.86839 130.835C9.59296 127.622 7.41142 125.188 4.99473 125.399C2.57878 125.611 0.843367 128.388 1.11807 131.602C1.39351 134.815 3.57505 137.248 5.991 137.037Z" fill="#CCE1E4"/>
<path d="M24.8103 136.928C26.931 138.189 29.9784 136.923 31.6179 134.103C33.2566 131.281 32.8661 127.974 30.7447 126.715C28.6239 125.456 25.5758 126.722 23.9371 129.542C22.2984 132.364 22.6895 135.67 24.8103 136.929V136.928Z" fill="#CCE1E4"/>
<path d="M36.1691 140.271C34.7941 138.252 31.5489 138.095 28.9205 139.924C26.2914 141.753 25.2753 144.872 26.6496 146.892C28.0246 148.912 31.2698 149.068 33.8982 147.24C36.5266 145.411 37.5434 142.292 36.1691 140.272V140.271Z" fill="#CCE1E4"/>
<path d="M22.0492 140.652C21.787 138.818 20.6742 137.144 18.8963 136.297C17.1184 135.449 15.1332 135.644 13.5663 136.605C11.8338 137.668 10.7262 139.057 9.234 139.663C7.74252 140.27 3.56405 138.463 0.962765 143.238C-0.874472 146.612 0.81186 150.876 4.25631 152.519C6.87445 153.767 8.94611 153.628 10.4676 154.353C11.9884 155.078 13.1993 156.784 15.8174 158.033C19.2619 159.676 23.5898 158.282 24.9978 154.704C26.991 149.637 22.9539 147.526 22.469 145.976C21.984 144.427 22.3401 142.679 22.05 140.652H22.0492Z" fill="#CCE1E4"/>
<path d="M20.0562 193.42C22.3659 194.275 25.1401 192.477 26.2521 189.406C27.3634 186.334 26.3928 183.151 24.083 182.296C21.7726 181.443 18.9991 183.239 17.8871 186.312C16.7758 189.383 17.7465 192.566 20.0569 193.42H20.0562Z" fill="#CCE1E4"/>
<path d="M11.2787 198.319C13.6954 198.108 15.4308 195.332 15.1561 192.117C14.8807 188.904 12.6991 186.471 10.2825 186.681C7.8665 186.894 6.13109 189.67 6.40579 192.884C6.68123 196.097 8.86277 198.53 11.2787 198.319Z" fill="#CCE1E4"/>
<path d="M30.098 198.211C32.2187 199.471 35.2661 198.206 36.9056 195.386C38.5443 192.563 38.1539 189.257 36.0324 187.997C33.9117 186.738 30.8635 188.005 29.2248 190.825C27.5861 193.646 27.9773 196.953 30.098 198.211V198.211Z" fill="#CCE1E4"/>
<path d="M41.4568 201.554C40.0818 199.534 36.8366 199.378 34.2082 201.206C31.5791 203.035 30.563 206.154 31.9373 208.175C33.3123 210.194 36.5575 210.35 39.1859 208.522C41.8143 206.694 42.8311 203.574 41.4568 201.554V201.554Z" fill="#CCE1E4"/>
<path d="M27.337 201.935C27.0747 200.1 25.962 198.427 24.1841 197.579C22.4062 196.731 20.4209 196.927 18.854 197.888C17.1215 198.95 16.0139 200.339 14.5217 200.945C13.0302 201.552 8.85177 199.745 6.25048 204.521C4.41325 207.894 6.09958 212.158 9.54403 213.801C12.1622 215.05 14.2338 214.911 15.7553 215.636C17.2761 216.361 18.487 218.067 21.1052 219.315C24.5496 220.959 28.8775 219.564 30.2855 215.986C32.2788 210.92 28.2417 208.809 27.7567 207.259C27.2718 205.709 27.6278 203.962 27.3377 201.935H27.337Z" fill="#CCE1E4"/>
</svg>
