<svg width="40" height="31" viewBox="0 0 40 31" fill="none" xmlns="http://www.w3.org/2000/svg">
<path d="M32 15.2169C32 16.3169 32.9 17.2169 34 17.2169H38C39.1 17.2169 40 16.3169 40 15.2169C40 14.1169 39.1 13.2169 38 13.2169H34C32.9 13.2169 32 14.1169 32 15.2169ZM29.18 24.8569C29.023 25.0617 28.9086 25.296 28.8436 25.5458C28.7786 25.7956 28.7643 26.0559 28.8016 26.3113C28.8389 26.5667 28.927 26.8121 29.0607 27.0329C29.1944 27.2537 29.371 27.4454 29.58 27.5969C30.64 28.3769 31.76 29.2169 32.82 30.0169C33.7 30.6769 34.94 30.4969 35.58 29.6169C35.58 29.5969 35.6 29.5969 35.6 29.5769C35.757 29.3702 35.8713 29.1343 35.9363 28.883C36.0012 28.6317 36.0155 28.3699 35.9783 28.1131C35.941 27.8562 35.8531 27.6093 35.7194 27.3867C35.5858 27.1642 35.4092 26.9705 35.2 26.8169C34.14 26.0169 33.02 25.1769 31.98 24.3969C31.77 24.2416 31.5314 24.1294 31.278 24.0664C31.0245 24.0035 30.7611 23.9912 30.5029 24.0303C30.2447 24.0693 29.9967 24.1588 29.7731 24.2938C29.5495 24.4288 29.3548 24.6065 29.2 24.8169C29.2 24.8369 29.18 24.8569 29.18 24.8569ZM35.62 0.836853C35.62 0.816853 35.6 0.816853 35.6 0.796853C35.446 0.588054 35.2522 0.411893 35.0296 0.278585C34.8071 0.145277 34.5603 0.0574731 34.3036 0.0202651C34.0468 -0.0169428 33.7853 -0.00281451 33.534 0.0618301C33.2828 0.126475 33.0469 0.24035 32.84 0.396853C31.78 1.19685 30.64 2.03685 29.6 2.83685C28.72 3.49685 28.56 4.73685 29.22 5.59685C29.22 5.61685 29.24 5.61685 29.24 5.63685C29.9 6.51685 31.12 6.69685 32 6.03685C33.06 5.25685 34.18 4.39685 35.24 3.59685C36.1 2.95685 36.26 1.71685 35.62 0.836853ZM12 9.21685H4C1.8 9.21685 0 11.0169 0 13.2169V17.2169C0 19.4169 1.8 21.2169 4 21.2169H6V27.2169C6 28.3169 6.9 29.2169 8 29.2169C9.1 29.2169 10 28.3169 10 27.2169V21.2169H12L22 27.2169V3.21685L12 9.21685ZM27 15.2169C27 12.5569 25.84 10.1569 24 8.51685V21.8969C25.84 20.2769 27 17.8769 27 15.2169Z" fill="#9ED0E0"/>
</svg>
