<svg fill="none" height="158" viewBox="0 0 520 158" width="520" xmlns="http://www.w3.org/2000/svg" xmlns:xlink="http://www.w3.org/1999/xlink"><clipPath id="a"><path d="m0 0h520v158h-520z"/></clipPath><clipPath id="b"><path d="m0 0h520v82h-520z"/></clipPath><clipPath id="c"><path d="m82 98h356v60h-356z"/></clipPath><g clip-path="url(#a)"><g clip-path="url(#b)"><path d="m0 0h520v82h-520z" fill="#fff"/><g fill="#4a3636"><path d="m20.7226 69.59v-11.8491h-7.3711v11.8491h-5.46052v-11.8491h-7.694813v-6.0518h7.694813v-14.0476h-7.694813v-6.0518h7.694813v-11.849h5.46052v11.849h7.3711v-11.849h5.4605v11.849h7.7888v6.0518h-7.7888v14.0476h7.7888v6.0518h-7.7888v11.8491zm0-17.9009v-14.0476h-7.3711v14.0476z"/><path d="m71.6942 77.4237c-5.7528 0-10.4303-5.1839-10.4303-11.5597v-11.3978c-.522.0579-1.0336.1157-1.5452.1157-.5534 0-1.0545-.0462-1.5452-.1041-.0418 11.4556-8.457 20.7705-18.8142 20.7705h-.5951v-6.0518h.5951c7.3607 0 13.3537-6.6419 13.3537-14.7997v-1.9903c-4.1241-2.6845-6.6717-7.6255-6.6717-12.983v-18.9654c0-8.3545 6.1392-15.15843 13.6774-15.15843s13.5938 6.80393 13.5938 15.15843v18.9654c0 5.3344-2.5162 10.2753-6.5881 12.983v13.4575c0 3.0317 2.2239 5.5079 4.9698 5.5079s4.9698-2.4647 4.9698-5.5079v-.6596h5.4605v.6596c0 6.3758-4.6775 11.5597-10.4303 11.5597zm-20.1924-38.0002c0 5.022 3.6856 9.1066 8.2169 9.1066s8.1333-4.0846 8.1333-9.1066v-1.7125h-16.3502zm16.3502-7.7644v-3.4251h-16.3502v3.4251zm0-9.4769v-1.7125c0-5.022-3.6438-9.1067-8.1333-9.1067s-8.2169 4.0847-8.2169 9.1067v1.7125z"/><path d="m110.283 66.9054v-6.0518h.595c8.165 0 14.805-7.3131 14.805-16.3156s-6.64-16.4081-14.805-16.4081h-24.2014v-6.0518h24.2014c11.172 0 20.266 10.0786 20.266 22.4599 0 12.3814-9.094 22.3674-20.266 22.3674z"/><path d="m159.292 66.9054v-6.0518h.595c9.25 0 16.768-8.2966 16.768-18.491v-12.5202h-12.32v-6.0518h12.32v-11.3746h5.46v11.3746h8.123v6.0518h-8.123v12.5202c0 13.5385-9.971 24.5428-22.228 24.5428zm-15.651-9.1992v-38.1854h5.461v31.1616c1.19-.9836 1.9-2.4994 1.9-4.1541v-.6596h5.46v.6596c0 6.1675-4.52 11.1779-10.085 11.1779z"/><path d="m239.174 69.0808c-12.78 0-23.179-11.4787-23.179-25.5842 0-6.9312 2.402-13.3649 6.766-18.0975.48-.5323.992-1.0415 1.514-1.5275h-24.442v-6.0518h45.918v6.0518h-6.577c-4.699 0-9.136 2.0482-12.498 5.7857-3.362 3.6334-5.22 8.5512-5.22 13.8509 0 10.7729 7.945 19.5324 17.718 19.5324h.595v6.0518h-.595z"/><path d="m296.713 80.4554c-6.463 0-11.715-5.8204-11.715-12.983v-4.3624h-11.892v-6.0518h11.892v-3.4251h-7.611v-6.0518h7.611v-3.7376c-2.359-.5901-4.458-1.8861-6.076-3.7838l-.397-.4628 3.821-4.2351.418.4628c1.336 1.4811 3.101 2.2911 4.959 2.2911 1.859 0 3.592-.81 4.886-2.2911l.408-.4744 3.936 4.2351-.428.4744c-1.671 1.8514-3.811 3.1706-6.066 3.7607v3.7375h6.932v6.0518h-6.932v3.4252h11.119v6.0518h-11.119v4.3623c0 3.8186 2.808 6.9313 6.254 6.9313 3.445 0 6.254-3.1127 6.254-6.9313v-.6595h5.46v.6595c0 7.1627-5.252 12.9831-11.714 12.9831zm-44.895-18.0165v-6.0518h.595c2.14 0 7.11-.567 7.11-5.7857v-27.4819h41.481c2.318 0 4.197-2.1291 4.197-4.7442 0-2.6152-1.879-4.6517-4.197-4.6517h-41.22v-6.05182h41.22c5.324 0 9.657 4.80212 9.657 10.70352 0 5.9013-4.333 10.796-9.657 10.796h-36.021v21.4301c0 7.0816-5.053 11.8375-12.57 11.8375z"/><path d="m359.305 81.115c-13.49 0-24.452-12.1152-24.452-27.0075 0-4.1888-3.07-7.5908-6.85-7.5908-3.779 0-6.849 3.402-6.849 7.5908v.6596h-5.46v-.6596c0-7.5213 5.523-13.6426 12.309-13.6426 2.976 0 5.398-2.6845 5.398-5.9824 0-3.2978-2.474-5.8782-5.398-5.8782-2.923 0-5.303 2.6383-5.303 5.8782v.6596h-5.461v-.6596c0-6.584 4.834-11.9416 10.775-11.9416s10.858 5.3576 10.858 11.9416c0 3.3557-1.232 6.4916-3.393 8.7595 3.049 2.5226 4.855 6.5147 4.855 10.8655 0 11.5598 8.52 20.9557 18.992 20.9557h.595v6.0518h-.595zm.856-16.0147c-6.223 0-11.287-5.6121-11.287-12.5086v-10.1481c0-6.8965 5.064-12.5086 11.287-12.5086 6.222 0 11.203 5.6121 11.203 12.5086v10.1481c0 6.8965-5.022 12.5086-11.203 12.5086zm-5.44-10.1481c.856 2.4416 2.997 4.0963 5.44 4.0963s4.5-1.6779 5.356-4.0963zm11.182-6.0518v-2.8581h-11.558v2.8581zm-.397-8.9099c-.866-2.3605-2.996-3.9921-5.345-3.9921s-4.563 1.6431-5.429 3.9921zm-9.271-16.1189 3.936-4.2351 3.822 4.2351-3.822 4.2352zm-10.858-6.8386v-6.0518h29.495v6.0518zm-21.205-5.6815 3.821-4.23514 3.936 4.23514-3.936 4.2351zm39.267-7.11639 3.822-4.23511 3.821 4.23511-3.821 4.36238zm-14.805 0 3.916-4.23511 3.821 4.23511-3.821 4.35081-3.926-4.35081z"/><path d="m388.821 69.5552v-54.7786h5.46v48.5648c13.771-1.539 24.473-14.5798 24.473-29.9928v-.6596h5.461v.6596c0 19.9605-14.659 36.2066-32.669 36.2066h-2.736z"/><path d="m439.291 71.6381v-59.2336h5.461v59.2336zm8.655-26.5446-.104-6.0518h14.022v6.0518z"/><path d="m487.35 65.2854c-6.463 0-11.715-5.8204-11.715-12.983v-20.5738c0-7.1511 5.252-12.9831 11.715-12.9831h21.132c6.462 0 11.714 5.8204 11.714 12.9831v20.5738c0 7.1511-5.252 12.983-11.714 12.983zm0-40.4765c-3.446 0-6.254 3.1127-6.254 6.9312v20.5739c0 3.8185 2.808 6.9312 6.254 6.9312h21.132c3.445 0 6.254-3.1127 6.254-6.9312v-20.5739c0-3.8185-2.809-6.9312-6.254-6.9312z"/></g></g><g clip-path="url(#c)"><path d="m0 0h356v60h-356z" fill="#fff" transform="translate(82 98)"/><g fill="#4a3636"><path d="m102.176 157.233v-21.466h-20.1401v-5.959h20.1401v-12.249h-20.1401v-5.959h20.1401v-12.6923h5.954v12.6923h20.048v5.959h-20.048v12.249h20.048v5.959h-20.048v21.466z"/><path d="m148.341 154.897v-23.711h-11.749v-5.959h11.749v-8.021h5.954v8.021h18.933v2.986c0 7.713-6.273 13.991-13.981 13.991h-.649v-5.959h.649c3.256 0 6.194-2.039 7.4-5.059h-12.352v23.711z"/><path d="m186.491 154.999v-5.958h.649c21.301 0 38.617-17.376 38.617-38.739v-.65h5.954v.65c0 24.644-19.991 44.709-44.571 44.709h-.649zm-2.983-39.673v-5.959h13.878v5.959z"/><path d="m241.628 137.829 19.388-19.404c2.653-2.552 6.216-4.01 9.779-4.01 3.564 0 7.184 1.424 9.871 4.01l19.4 19.415-4.27 4.273-19.388-19.404c-1.446-1.526-3.381-2.335-5.601-2.335s-4.087.809-5.602 2.335l-19.297 19.404-4.269-4.273zm51.652-17.74c-1.981 0-3.825-.764-5.214-2.154-1.389-1.378-2.152-3.235-2.152-5.218 0-4.113 3.302-7.463 7.366-7.463 2.015 0 3.883.809 5.226 2.256 1.377 1.288 2.129 3.088 2.129 5.196 0 4.067-3.302 7.371-7.366 7.371zm0-9.799c-1.286 0-2.334 1.094-2.334 2.438 0 .638.251 1.288.649 1.687.422.421 1.014.649 1.685.649 1.332 0 2.334-1.002 2.334-2.336 0-.683-.227-1.264-.649-1.686-.478-.478-1.081-.74-1.685-.74z"/><path d="m354.451 127.472h-41.486v5.959h41.486z"/><path d="m369.672 154.999v-5.958h.649c21.301 0 38.617-17.376 38.617-38.739v-.65h5.954v.65c0 24.644-19.991 44.709-44.571 44.709h-.649zm-2.983-39.673v-5.959h13.89v5.959z"/><path d="m431.89 157.233v-5.959h5.954v5.959zm0-14.003v-44.3223h5.954v44.3223z"/></g></g></g></svg>