<svg width="40" height="39" viewBox="0 0 40 39" fill="none" xmlns="http://www.w3.org/2000/svg">
<path d="M36.2963 10.3734H31.4926C32.18 9.37352 32.5621 8.19555 32.5926 6.98261C32.62 6.0586 32.4582 5.13873 32.1172 4.27953C31.7761 3.42032 31.263 2.63992 30.6093 1.98625C29.9557 1.33259 29.1753 0.819465 28.316 0.47841C27.4568 0.137354 26.537 -0.0244338 25.613 0.00298353C24.7595 0.0211975 23.919 0.215669 23.1443 0.574186C22.3696 0.932703 21.6774 1.44752 21.1111 2.08632C20.6934 2.56275 20.3214 3.07736 20 3.62335C19.6786 3.07736 19.3066 2.56275 18.8889 2.08632C18.3226 1.44752 17.6304 0.932703 16.8557 0.574186C16.081 0.215669 15.2405 0.0211975 14.387 0.00298353C13.463 -0.0244338 12.5432 0.137354 11.684 0.47841C10.8247 0.819465 10.0443 1.33259 9.39067 1.98625C8.73701 2.63992 8.22389 3.42032 7.88283 4.27953C7.54178 5.13873 7.37999 6.0586 7.40741 6.98261C7.43789 8.19555 7.82004 9.37352 8.50741 10.3734H3.7037C2.72142 10.3734 1.77937 10.7636 1.08479 11.4581C0.390211 12.1527 7.72062e-08 13.0948 7.72062e-08 14.0771V20.003C-0.000174186 20.8568 0.294654 21.6845 0.834588 22.3459C1.37452 23.0073 2.1264 23.4619 2.96296 23.6326V34.8178C2.96296 35.8001 3.35317 36.7421 4.04775 37.4367C4.74233 38.1313 5.68438 38.5215 6.66667 38.5215H33.3333C34.3156 38.5215 35.2577 38.1313 35.9522 37.4367C36.6468 36.7421 37.037 35.8001 37.037 34.8178V23.6326C37.8736 23.4619 38.6255 23.0073 39.1654 22.3459C39.7053 21.6845 40.0002 20.8568 40 20.003V14.0771C40 13.0948 39.6098 12.1527 38.9152 11.4581C38.2206 10.7636 37.2786 10.3734 36.2963 10.3734ZM35.5556 19.2622H22.2222V14.8178H35.5556V19.2622ZM24.4444 5.03446C24.6084 4.85253 24.8081 4.70646 25.0312 4.60543C25.2543 4.50441 25.4959 4.45061 25.7407 4.44743H25.8056C26.1189 4.44654 26.4293 4.50869 26.7182 4.63018C27.0071 4.75167 27.2685 4.93002 27.4871 5.15462C27.7056 5.37922 27.8768 5.64548 27.9904 5.93757C28.1039 6.22965 28.1576 6.54159 28.1481 6.85484C28.145 7.09971 28.0912 7.34127 27.9901 7.56435C27.8891 7.78743 27.743 7.98721 27.5611 8.15113C26.2833 9.28447 24.1815 9.86595 22.4444 10.1437C22.7222 8.4141 23.3037 6.31224 24.4444 5.03446ZM12.537 5.13261C12.9766 4.69775 13.5687 4.45187 14.187 4.44743H14.2593C14.5041 4.45061 14.7457 4.50441 14.9688 4.60543C15.1919 4.70646 15.3916 4.85253 15.5556 5.03446C16.6889 6.31224 17.2704 8.41224 17.5463 10.1474C15.8241 9.8678 13.7037 9.28632 12.4389 8.15113C12.257 7.98721 12.1109 7.78743 12.0099 7.56435C11.9088 7.34127 11.855 7.09971 11.8519 6.85484C11.8437 6.53635 11.9002 6.21952 12.0179 5.9235C12.1357 5.62748 12.3123 5.35843 12.537 5.13261ZM4.44444 14.8178H17.7778V19.2622H4.44444V14.8178ZM7.40741 23.7067H17.7778V34.0771H7.40741V23.7067ZM22.2222 34.0771V23.7067H32.5926V34.0771H22.2222Z" fill="#9ED0E0"/>
</svg>
