<svg width="32" height="32" viewBox="0 0 32 32" fill="none" xmlns="http://www.w3.org/2000/svg">
<g clip-path="url(#clip0_361_539)">
<path d="M20.1569 13.6455C20.1569 14.1166 19.9698 14.5683 19.6368 14.9013C19.3037 15.2344 18.852 15.4215 18.381 15.4215H15.4211V18.3814C15.4211 18.8524 15.234 19.3042 14.901 19.6372C14.5679 19.9703 14.1162 20.1574 13.6452 20.1574C13.1742 20.1574 12.7225 19.9703 12.3895 19.6372C12.0564 19.3042 11.8693 18.8524 11.8693 18.3814V15.4215H8.90945C8.43844 15.4215 7.98673 15.2344 7.65368 14.9013C7.32063 14.5683 7.13353 14.1166 7.13353 13.6455C7.13353 13.1745 7.32063 12.7228 7.65368 12.3898C7.98673 12.0567 8.43844 11.8696 8.90945 11.8696H11.8693V8.90965C11.8693 8.43864 12.0564 7.98692 12.3895 7.65386C12.7225 7.3208 13.1742 7.13369 13.6452 7.13369C14.1162 7.13369 14.5679 7.3208 14.901 7.65386C15.234 7.98692 15.4211 8.43864 15.4211 8.90965V11.8696H18.381C18.852 11.8696 19.3037 12.0567 19.6368 12.3898C19.9698 12.7228 20.1569 13.1745 20.1569 13.6455ZM31.4769 31.4777C31.3119 31.6432 31.1159 31.7746 30.9 31.8642C30.6841 31.9539 30.4527 32 30.219 32C29.9852 32 29.7538 31.9539 29.5379 31.8642C29.3221 31.7746 29.126 31.6432 28.961 31.4777L21.9328 24.4493C19.1868 26.5566 15.742 27.5405 12.2972 27.2013C8.85245 26.8621 5.66569 25.2252 3.38337 22.6228C1.10105 20.0203 -0.105921 16.6472 0.00730223 13.1875C0.120526 9.72785 1.54546 6.4408 3.99306 3.99315C6.44065 1.5455 9.72762 0.120529 13.1872 0.0073024C16.6468 -0.105924 20.0199 1.10107 22.6223 3.38345C25.2247 5.66582 26.8615 8.85266 27.2006 12.2975C27.5398 15.7423 26.556 19.1872 24.4487 21.9334L31.4843 28.9676C31.8159 29.3016 32.0014 29.7535 32 30.2242C31.9986 30.6948 31.8105 31.1456 31.4769 31.4777ZM13.6452 23.7093C15.6356 23.7093 17.5813 23.1191 19.2362 22.0133C20.8912 20.9074 22.181 19.3357 22.9427 17.4968C23.7044 15.6579 23.9037 13.6344 23.5154 11.6822C23.1271 9.73002 22.1686 7.93683 20.7612 6.52939C19.3538 5.12194 17.5607 4.16346 15.6085 3.77515C13.6564 3.38684 11.6329 3.58613 9.79408 4.34784C7.95521 5.10954 6.3835 6.39944 5.2777 8.05441C4.17191 9.70939 3.58169 11.6551 3.58169 13.6455C3.58483 16.3137 4.64609 18.8716 6.53269 20.7582C8.41929 22.6449 10.9772 23.7062 13.6452 23.7093Z" fill="#F5F5F5"/>
</g>
<defs>
<clipPath id="clip0_361_539">
<rect width="32" height="32" fill="white"/>
</clipPath>
</defs>
</svg>
